<?xml version="1.0" encoding="UTF-8" standalone="no"?>
<svg width="347px" height="114px" viewBox="0 0 347 114" version="1.1" xmlns="http://www.w3.org/2000/svg" xmlns:xlink="http://www.w3.org/1999/xlink">
    <title>Slice 1</title>
    <defs></defs>
    <g id="Page-1" stroke="none" stroke-width="1" fill="none" fill-rule="evenodd">
        <path d="M4,18.9932976 C4,10.712728 10.7144632,4 19.0038201,4 L327.99618,4 C336.282561,4 343,10.7144175 343,18.9932976 L343,73.0067024 C343,81.287272 336.278714,88 328.005186,88 L89.2707825,88 L47.8806964,109.369438 C44.9328878,110.891373 42.5432167,109.439542 42.5432167,106.130629 L42.5432167,88 L18.9983765,88 C10.7150019,88 4,81.2855825 4,73.0067024 L4,18.9932976 L4,18.9932976 Z" id="Blase" stroke="#000000" stroke-width="7"></path>
        <path d="M190.8,49 C191.083335,49.533336 191.345832,50.0874971 191.5875,50.6625 C191.829168,51.2375029 192.066665,51.8166638 192.3,52.4 C192.533334,51.799997 192.774999,51.2083363 193.025,50.625 C193.275001,50.0416637 193.541665,49.483336 193.825,48.95 L204.525,28.925 C204.658334,28.6749988 204.795833,28.4750007 204.9375,28.325 C205.079167,28.1749992 205.237499,28.066667 205.4125,28 C205.587501,27.933333 205.783332,27.8916667 206,27.875 C206.216668,27.8583333 206.474998,27.85 206.775,27.85 L211.85,27.85 L211.85,64 L205.925,64 L205.925,40.65 C205.925,40.2166645 205.9375,39.7416693 205.9625,39.225 C205.9875,38.7083308 206.025,38.183336 206.075,37.65 L195.15,58.15 C194.899999,58.616669 194.575002,58.9791654 194.175,59.2375 C193.774998,59.4958346 193.308336,59.625 192.775,59.625 L191.85,59.625 C191.316664,59.625 190.850002,59.4958346 190.45,59.2375 C190.049998,58.9791654 189.725001,58.616669 189.475,58.15 L178.4,37.575 C178.466667,38.1250028 178.5125,38.6624974 178.5375,39.1875 C178.5625,39.7125026 178.575,40.1999977 178.575,40.65 L178.575,64 L172.65,64 L172.65,27.85 L177.725,27.85 C178.025002,27.85 178.283332,27.8583333 178.5,27.875 C178.716668,27.8916667 178.912499,27.933333 179.0875,28 C179.262501,28.066667 179.424999,28.1749992 179.575,28.325 C179.725001,28.4750007 179.866666,28.6749988 180,28.925 L190.8,49 Z M229.4,37.95 C231.016675,37.95 232.50416,38.2083308 233.8625,38.725 C235.22084,39.2416693 236.391662,39.9958284 237.375,40.9875 C238.358338,41.9791716 239.124997,43.1958261 239.675,44.6375 C240.225003,46.0791739 240.5,47.7249908 240.5,49.575 C240.5,50.041669 240.479167,50.4291651 240.4375,50.7375 C240.395833,51.0458349 240.320834,51.2874991 240.2125,51.4625 C240.104166,51.6375009 239.958334,51.7624996 239.775,51.8375 C239.591666,51.9125004 239.358335,51.95 239.075,51.95 L223.225,51.95 C223.408334,54.5833465 224.11666,56.5166605 225.35,57.75 C226.583339,58.9833395 228.216656,59.6 230.25,59.6 C231.250005,59.6 232.112496,59.4833345 232.8375,59.25 C233.562504,59.0166655 234.195831,58.7583348 234.7375,58.475 C235.279169,58.1916652 235.754165,57.9333345 236.1625,57.7 C236.570835,57.4666655 236.966665,57.35 237.35,57.35 C237.600001,57.35 237.816666,57.3999995 238,57.5 C238.183334,57.6000005 238.341666,57.7416657 238.475,57.925 L240.275,60.175 C239.591663,60.975004 238.825004,61.6458306 237.975,62.1875 C237.124996,62.7291694 236.237505,63.1624984 235.3125,63.4875 C234.387495,63.8125016 233.445838,64.041666 232.4875,64.175 C231.529162,64.308334 230.600005,64.375 229.7,64.375 C227.916658,64.375 226.258341,64.0791696 224.725,63.4875 C223.191659,62.8958304 221.858339,62.0208391 220.725,60.8625 C219.591661,59.7041609 218.700003,58.2708419 218.05,56.5625 C217.399997,54.8541581 217.075,52.8750113 217.075,50.625 C217.075,48.8749913 217.358331,47.2291744 217.925,45.6875 C218.49167,44.1458256 219.304161,42.8041724 220.3625,41.6625 C221.420839,40.5208276 222.712492,39.61667 224.2375,38.95 C225.762508,38.28333 227.483324,37.95 229.4,37.95 L229.4,37.95 Z M229.525,42.375 C227.724991,42.375 226.316672,42.8833282 225.3,43.9 C224.283328,44.9166717 223.633335,46.358324 223.35,48.225 L234.95,48.225 C234.95,47.424996 234.841668,46.6708369 234.625,45.9625 C234.408332,45.2541631 234.075002,44.633336 233.625,44.1 C233.174998,43.566664 232.608337,43.1458349 231.925,42.8375 C231.241663,42.5291651 230.441671,42.375 229.525,42.375 L229.525,42.375 Z M252.1,26.85 L252.1,64 L245.925,64 L245.925,26.85 L252.1,26.85 Z M277.125,64 C276.324996,64 275.800001,63.6250038 275.55,62.875 L275.05,60.4 C274.516664,61.000003 273.958336,61.5416642 273.375,62.025 C272.791664,62.5083358 272.162503,62.9249983 271.4875,63.275 C270.812497,63.6250018 270.087504,63.8958324 269.3125,64.0875 C268.537496,64.2791676 267.700004,64.375 266.8,64.375 C265.399993,64.375 264.116672,64.0833363 262.95,63.5 C261.783327,62.9166637 260.779171,62.0708389 259.9375,60.9625 C259.095829,59.8541611 258.445836,58.4833415 257.9875,56.85 C257.529164,55.2166585 257.3,53.3500105 257.3,51.25 C257.3,49.3499905 257.558331,47.5833415 258.075,45.95 C258.591669,44.3166585 259.333328,42.900006 260.3,41.7 C261.266671,40.499994 262.424993,39.5625034 263.775,38.8875 C265.125007,38.2124966 266.641658,37.875 268.325,37.875 C269.75834,37.875 270.983328,38.1041644 272,38.5625 C273.016672,39.0208356 273.924996,39.6333295 274.725,40.4 L274.725,26.85 L280.9,26.85 L280.9,64 L277.125,64 Z M268.9,59.475 C270.18334,59.475 271.274995,59.208336 272.175,58.675 C273.075004,58.141664 273.924996,57.3833382 274.725,56.4 L274.725,44.9 C274.024996,44.0499957 273.262504,43.4500017 272.4375,43.1 C271.612496,42.7499983 270.725005,42.575 269.775,42.575 C268.841662,42.575 267.995837,42.7499983 267.2375,43.1 C266.479163,43.4500017 265.837503,43.9791631 265.3125,44.6875 C264.787497,45.3958369 264.383335,46.2958279 264.1,47.3875 C263.816665,48.4791721 263.675,49.7666592 263.675,51.25 C263.675,52.7500075 263.795832,54.0208281 264.0375,55.0625 C264.279168,56.1041719 264.624998,56.9541634 265.075,57.6125 C265.525002,58.2708366 266.074997,58.7458319 266.725,59.0375 C267.375003,59.3291681 268.099996,59.475 268.9,59.475 L268.9,59.475 Z M298.175,37.95 C299.791675,37.95 301.27916,38.2083308 302.6375,38.725 C303.99584,39.2416693 305.166662,39.9958284 306.15,40.9875 C307.133338,41.9791716 307.899997,43.1958261 308.45,44.6375 C309.000003,46.0791739 309.275,47.7249908 309.275,49.575 C309.275,50.041669 309.254167,50.4291651 309.2125,50.7375 C309.170833,51.0458349 309.095834,51.2874991 308.9875,51.4625 C308.879166,51.6375009 308.733334,51.7624996 308.55,51.8375 C308.366666,51.9125004 308.133335,51.95 307.85,51.95 L292,51.95 C292.183334,54.5833465 292.891661,56.5166605 294.125,57.75 C295.358339,58.9833395 296.991656,59.6 299.025,59.6 C300.025005,59.6 300.887496,59.4833345 301.6125,59.25 C302.337504,59.0166655 302.970831,58.7583348 303.5125,58.475 C304.054169,58.1916652 304.529165,57.9333345 304.9375,57.7 C305.345835,57.4666655 305.741665,57.35 306.125,57.35 C306.375001,57.35 306.591666,57.3999995 306.775,57.5 C306.958334,57.6000005 307.116666,57.7416657 307.25,57.925 L309.05,60.175 C308.366663,60.975004 307.600004,61.6458306 306.75,62.1875 C305.899996,62.7291694 305.012505,63.1624984 304.0875,63.4875 C303.162495,63.8125016 302.220838,64.041666 301.2625,64.175 C300.304162,64.308334 299.375004,64.375 298.475,64.375 C296.691658,64.375 295.033341,64.0791696 293.5,63.4875 C291.966659,62.8958304 290.633339,62.0208391 289.5,60.8625 C288.366661,59.7041609 287.475003,58.2708419 286.825,56.5625 C286.174997,54.8541581 285.85,52.8750113 285.85,50.625 C285.85,48.8749913 286.13333,47.2291744 286.7,45.6875 C287.266669,44.1458256 288.079161,42.8041724 289.1375,41.6625 C290.195839,40.5208276 291.487492,39.61667 293.0125,38.95 C294.537508,38.28333 296.258324,37.95 298.175,37.95 L298.175,37.95 Z M298.3,42.375 C296.499991,42.375 295.091672,42.8833282 294.075,43.9 C293.058328,44.9166717 292.408335,46.358324 292.125,48.225 L303.725,48.225 C303.725,47.424996 303.616668,46.6708369 303.4,45.9625 C303.183332,45.2541631 302.850002,44.633336 302.4,44.1 C301.949998,43.566664 301.383337,43.1458349 300.7,42.8375 C300.016663,42.5291651 299.216671,42.375 298.3,42.375 L298.3,42.375 Z M314.3,64 L314.3,38.35 L317.925,38.35 C318.558336,38.35 318.999999,38.4666655 319.25,38.7 C319.500001,38.9333345 319.666666,39.3333305 319.75,39.9 L320.125,43 C321.041671,41.4166587 322.11666,40.1666713 323.35,39.25 C324.583339,38.3333287 325.966659,37.875 327.5,37.875 C328.766673,37.875 329.816663,38.1666637 330.65,38.75 L329.85,43.375 C329.8,43.6750015 329.691667,43.8874994 329.525,44.0125 C329.358333,44.1375006 329.133335,44.2 328.85,44.2 C328.599999,44.2 328.258335,44.1416672 327.825,44.025 C327.391664,43.9083327 326.81667,43.85 326.1,43.85 C324.81666,43.85 323.716671,44.2041631 322.8,44.9125 C321.883329,45.6208369 321.108337,46.6583265 320.475,48.025 L320.475,64 L314.3,64 Z" id="Melder" fill="#2980D9"></path>
        <path d="M17.65,64 L17.65,27.85 L30.125,27.85 C32.4916785,27.85 34.5124916,28.0749978 36.1875,28.525 C37.8625084,28.9750022 39.2374946,29.6166625 40.3125,30.45 C41.3875054,31.2833375 42.1749975,32.2916607 42.675,33.475 C43.1750025,34.6583392 43.425,35.9916592 43.425,37.475 C43.425,38.3250042 43.3000013,39.1374961 43.05,39.9125 C42.7999988,40.6875039 42.4125026,41.4124966 41.8875,42.0875 C41.3624974,42.7625034 40.6958374,43.3749972 39.8875,43.925 C39.0791626,44.4750028 38.1166723,44.9416648 37,45.325 C41.9666915,46.4416722 44.45,49.1249787 44.45,53.375 C44.45,54.908341 44.1583363,56.3249935 43.575,57.625 C42.9916638,58.9250065 42.1416723,60.0458286 41.025,60.9875 C39.9083278,61.9291714 38.5333415,62.666664 36.9,63.2 C35.2666585,63.733336 33.4000105,64 31.3,64 L17.65,64 Z M24.375,48.15 L24.375,58.75 L31.2,58.75 C32.4500063,58.75 33.4958291,58.6000015 34.3375,58.3 C35.1791709,57.9999985 35.8541641,57.6000025 36.3625,57.1 C36.8708359,56.5999975 37.2374989,56.01667 37.4625,55.35 C37.6875011,54.68333 37.8,53.9750037 37.8,53.225 C37.8,52.4416627 37.6750013,51.7375031 37.425,51.1125 C37.1749988,50.4874969 36.783336,49.9541689 36.25,49.5125 C35.716664,49.0708311 35.0333375,48.7333345 34.2,48.5 C33.3666625,48.2666655 32.3583393,48.15 31.175,48.15 L24.375,48.15 Z M24.375,43.5 L29.75,43.5 C32.0333447,43.5 33.7666607,43.0833375 34.95,42.25 C36.1333393,41.4166625 36.725,40.0916758 36.725,38.275 C36.725,36.3916573 36.191672,35.050004 35.125,34.25 C34.058328,33.449996 32.391678,33.05 30.125,33.05 L24.375,33.05 L24.375,43.5 Z M55.525,38.35 L55.525,54.65 C55.525,56.2166745 55.8874964,57.4291624 56.6125,58.2875 C57.3375036,59.1458376 58.4249927,59.575 59.875,59.575 C60.941672,59.575 61.941662,59.3375024 62.875,58.8625 C63.808338,58.3874976 64.6916625,57.7333375 65.525,56.9 L65.525,38.35 L71.7,38.35 L71.7,64 L67.925,64 C67.124996,64 66.6000012,63.6250038 66.35,62.875 L65.925,60.825 C65.391664,61.358336 64.8416695,61.8458311 64.275,62.2875 C63.7083305,62.7291689 63.1041699,63.1041651 62.4625,63.4125 C61.8208301,63.7208349 61.1291704,63.9624991 60.3875,64.1375 C59.6458296,64.3125009 58.8500043,64.4 58,64.4 C56.599993,64.4 55.3625054,64.1625024 54.2875,63.6875 C53.2124946,63.2124976 52.308337,62.541671 51.575,61.675 C50.841663,60.808329 50.2875019,59.7791726 49.9125,58.5875 C49.5374981,57.3958274 49.35,56.0833405 49.35,54.65 L49.35,38.35 L55.525,38.35 Z M59.5,31.7 C59.5,32.166669 59.4083343,32.6041646 59.225,33.0125 C59.0416657,33.4208354 58.7875016,33.7749985 58.4625,34.075 C58.1374984,34.3750015 57.7625021,34.6124991 57.3375,34.7875 C56.9124979,34.9625009 56.466669,35.05 56,35.05 C55.5499978,35.05 55.1208354,34.9625009 54.7125,34.7875 C54.3041646,34.6124991 53.9416682,34.3750015 53.625,34.075 C53.3083318,33.7749985 53.0583343,33.4208354 52.875,33.0125 C52.6916657,32.6041646 52.6,32.166669 52.6,31.7 C52.6,31.2166643 52.6916657,30.7625021 52.875,30.3375 C53.0583343,29.9124979 53.3083318,29.5416683 53.625,29.225 C53.9416682,28.9083318 54.3041646,28.6583342 54.7125,28.475 C55.1208354,28.2916657 55.5499978,28.2 56,28.2 C56.466669,28.2 56.9124979,28.2916657 57.3375,28.475 C57.7625021,28.6583342 58.1374984,28.9083318 58.4625,29.225 C58.7875016,29.5416683 59.0416657,29.9124979 59.225,30.3375 C59.4083343,30.7625021 59.5,31.2166643 59.5,31.7 L59.5,31.7 Z M68.85,31.7 C68.85,32.166669 68.7583343,32.6041646 68.575,33.0125 C68.3916658,33.4208354 68.1416683,33.7749985 67.825,34.075 C67.5083317,34.3750015 67.1375021,34.6124991 66.7125,34.7875 C66.2874979,34.9625009 65.841669,35.05 65.375,35.05 C64.908331,35.05 64.4666688,34.9625009 64.05,34.7875 C63.6333312,34.6124991 63.2708349,34.3750015 62.9625,34.075 C62.6541651,33.7749985 62.4083342,33.4208354 62.225,33.0125 C62.0416657,32.6041646 61.95,32.166669 61.95,31.7 C61.95,31.2166643 62.0416657,30.7625021 62.225,30.3375 C62.4083342,29.9124979 62.6541651,29.5416683 62.9625,29.225 C63.2708349,28.9083318 63.6333312,28.6583342 64.05,28.475 C64.4666688,28.2916657 64.908331,28.2 65.375,28.2 C65.841669,28.2 66.2874979,28.2916657 66.7125,28.475 C67.1375021,28.6583342 67.5083317,28.9083318 67.825,29.225 C68.1416683,29.5416683 68.3916658,29.9124979 68.575,30.3375 C68.7583343,30.7625021 68.85,31.2166643 68.85,31.7 L68.85,31.7 Z M78.3,64 L78.3,38.35 L81.925,38.35 C82.5583365,38.35 82.9999988,38.4666655 83.25,38.7 C83.5000012,38.9333345 83.6666663,39.3333305 83.75,39.9 L84.125,43 C85.0416713,41.4166587 86.1166605,40.1666713 87.35,39.25 C88.5833395,38.3333287 89.966659,37.875 91.5,37.875 C92.766673,37.875 93.8166625,38.1666637 94.65,38.75 L93.85,43.375 C93.7999998,43.6750015 93.6916675,43.8874994 93.525,44.0125 C93.3583325,44.1375006 93.1333348,44.2 92.85,44.2 C92.5999987,44.2 92.2583355,44.1416672 91.825,44.025 C91.3916645,43.9083327 90.8166703,43.85 90.1,43.85 C88.8166603,43.85 87.7166712,44.2041631 86.8,44.9125 C85.8833288,45.6208369 85.1083365,46.6583265 84.475,48.025 L84.475,64 L78.3,64 Z M107.6,37.9 C108.700006,37.9 109.733328,38.0124989 110.7,38.2375 C111.666672,38.4625011 112.549996,38.7916645 113.35,39.225 L120.725,39.225 L120.725,41.525 C120.725,41.9083352 120.625001,42.2083322 120.425,42.425 C120.224999,42.6416677 119.883336,42.7916662 119.4,42.875 L117.1,43.3 C117.266667,43.7333355 117.395833,44.1916642 117.4875,44.675 C117.579167,45.1583357 117.625,45.666664 117.625,46.2 C117.625,47.466673 117.370836,48.6124949 116.8625,49.6375 C116.354164,50.6625051 115.654171,51.5333298 114.7625,52.25 C113.870829,52.9666702 112.812506,53.5208314 111.5875,53.9125 C110.362494,54.3041686 109.03334,54.5 107.6,54.5 C106.633329,54.5 105.691671,54.4083343 104.775,54.225 C103.974996,54.7083358 103.575,55.249997 103.575,55.85 C103.575,56.3666693 103.812498,56.7458321 104.2875,56.9875 C104.762502,57.2291679 105.387496,57.3999995 106.1625,57.5 C106.937504,57.6000005 107.816662,57.6624999 108.8,57.6875 C109.783338,57.7125001 110.791662,57.7666663 111.825,57.85 C112.858339,57.9333338 113.866662,58.0791656 114.85,58.2875 C115.833338,58.4958344 116.712496,58.8249978 117.4875,59.275 C118.262504,59.7250023 118.887498,60.3374961 119.3625,61.1125 C119.837502,61.8875039 120.075,62.8833273 120.075,64.1 C120.075,65.233339 119.795836,66.333328 119.2375,67.4 C118.679164,68.466672 117.870839,69.4166625 116.8125,70.25 C115.754161,71.0833375 114.458341,71.7541641 112.925,72.2625 C111.391659,72.7708359 109.641676,73.025 107.675,73.025 C105.72499,73.025 104.03334,72.8375019 102.6,72.4625 C101.16666,72.0874981 99.9791714,71.5875031 99.0375,70.9625 C98.0958286,70.3374969 97.391669,69.6166707 96.925,68.8 C96.458331,67.9833292 96.225,67.1333378 96.225,66.25 C96.225,65.049994 96.591663,64.0416708 97.325,63.225 C98.058337,62.4083293 99.0749935,61.7583358 100.375,61.275 C99.7416635,60.9249983 99.2333352,60.4583362 98.85,59.875 C98.4666647,59.2916637 98.275,58.533338 98.275,57.6 C98.275,57.2166647 98.341666,56.8208354 98.475,56.4125 C98.608334,56.0041646 98.8124986,55.600002 99.0875,55.2 C99.3625014,54.799998 99.7083312,54.4208351 100.125,54.0625 C100.541669,53.7041649 101.033331,53.3833348 101.6,53.1 C100.299993,52.3999965 99.2791704,51.4666725 98.5375,50.3 C97.7958296,49.1333275 97.425,47.7666745 97.425,46.2 C97.425,44.933327 97.6791641,43.7875051 98.1875,42.7625 C98.6958359,41.7374949 99.4041621,40.8625036 100.3125,40.1375 C101.220838,39.4124964 102.295827,38.8583352 103.5375,38.475 C104.779173,38.0916647 106.133326,37.9 107.6,37.9 L107.6,37.9 Z M114.375,65.15 C114.375,64.6499975 114.225001,64.2416683 113.925,63.925 C113.624999,63.6083317 113.216669,63.3625009 112.7,63.1875 C112.183331,63.0124991 111.57917,62.8833338 110.8875,62.8 C110.19583,62.7166663 109.462504,62.6541669 108.6875,62.6125 C107.912496,62.5708331 107.112504,62.5291669 106.2875,62.4875 C105.462496,62.4458331 104.66667,62.3750005 103.9,62.275 C103.199996,62.6583353 102.637502,63.1124974 102.2125,63.6375 C101.787498,64.1625026 101.575,64.7666632 101.575,65.45 C101.575,65.9000023 101.687499,66.3208314 101.9125,66.7125 C102.137501,67.1041686 102.495831,67.4416652 102.9875,67.725 C103.479169,68.0083348 104.116663,68.2291659 104.9,68.3875 C105.683337,68.5458341 106.641661,68.625 107.775,68.625 C108.925006,68.625 109.916663,68.5375009 110.75,68.3625 C111.583337,68.1874991 112.270831,67.9458349 112.8125,67.6375 C113.354169,67.3291651 113.749999,66.9625021 114,66.5375 C114.250001,66.1124979 114.375,65.6500025 114.375,65.15 L114.375,65.15 Z M107.6,50.55 C108.36667,50.55 109.03333,50.4458344 109.6,50.2375 C110.166669,50.0291656 110.637498,49.7416685 111.0125,49.375 C111.387502,49.0083315 111.670832,48.5666692 111.8625,48.05 C112.054168,47.5333307 112.15,46.9666697 112.15,46.35 C112.15,45.083327 111.770837,44.0791704 111.0125,43.3375 C110.254163,42.5958296 109.116674,42.225 107.6,42.225 C106.083326,42.225 104.945837,42.5958296 104.1875,43.3375 C103.429163,44.0791704 103.05,45.083327 103.05,46.35 C103.05,46.950003 103.145832,47.5083307 103.3375,48.025 C103.529168,48.5416692 103.812498,48.9874981 104.1875,49.3625 C104.562502,49.7375019 105.037497,50.0291656 105.6125,50.2375 C106.187503,50.4458344 106.849996,50.55 107.6,50.55 L107.6,50.55 Z M135.2,37.95 C136.816675,37.95 138.30416,38.2083308 139.6625,38.725 C141.02084,39.2416693 142.191662,39.9958284 143.175,40.9875 C144.158338,41.9791716 144.924997,43.1958261 145.475,44.6375 C146.025003,46.0791739 146.3,47.7249908 146.3,49.575 C146.3,50.041669 146.279167,50.4291651 146.2375,50.7375 C146.195833,51.0458349 146.120834,51.2874991 146.0125,51.4625 C145.904166,51.6375009 145.758334,51.7624996 145.575,51.8375 C145.391666,51.9125004 145.158335,51.95 144.875,51.95 L129.025,51.95 C129.208334,54.5833465 129.91666,56.5166605 131.15,57.75 C132.38334,58.9833395 134.016657,59.6 136.05,59.6 C137.050005,59.6 137.912496,59.4833345 138.6375,59.25 C139.362504,59.0166655 139.995831,58.7583348 140.5375,58.475 C141.079169,58.1916652 141.554165,57.9333345 141.9625,57.7 C142.370835,57.4666655 142.766665,57.35 143.15,57.35 C143.400001,57.35 143.616666,57.3999995 143.8,57.5 C143.983334,57.6000005 144.141666,57.7416657 144.275,57.925 L146.075,60.175 C145.391663,60.975004 144.625004,61.6458306 143.775,62.1875 C142.924996,62.7291694 142.037505,63.1624984 141.1125,63.4875 C140.187495,63.8125016 139.245838,64.041666 138.2875,64.175 C137.329162,64.308334 136.400004,64.375 135.5,64.375 C133.716658,64.375 132.058341,64.0791696 130.525,63.4875 C128.991659,62.8958304 127.658339,62.0208391 126.525,60.8625 C125.391661,59.7041609 124.500003,58.2708419 123.85,56.5625 C123.199997,54.8541581 122.875,52.8750113 122.875,50.625 C122.875,48.8749913 123.158331,47.2291744 123.725,45.6875 C124.291669,44.1458256 125.104161,42.8041724 126.1625,41.6625 C127.220839,40.5208276 128.512492,39.61667 130.0375,38.95 C131.562508,38.28333 133.283324,37.95 135.2,37.95 L135.2,37.95 Z M135.325,42.375 C133.524991,42.375 132.116672,42.8833282 131.1,43.9 C130.083328,44.9166717 129.433335,46.358324 129.15,48.225 L140.75,48.225 C140.75,47.424996 140.641668,46.6708369 140.425,45.9625 C140.208332,45.2541631 139.875002,44.633336 139.425,44.1 C138.974998,43.566664 138.408337,43.1458349 137.725,42.8375 C137.041663,42.5291651 136.241671,42.375 135.325,42.375 L135.325,42.375 Z M151.325,64 L151.325,38.35 L154.95,38.35 C155.583337,38.35 156.024999,38.4666655 156.275,38.7 C156.525001,38.9333345 156.691666,39.3333305 156.775,39.9 L157.15,43 C158.066671,41.4166587 159.141661,40.1666713 160.375,39.25 C161.608339,38.3333287 162.991659,37.875 164.525,37.875 C165.791673,37.875 166.841663,38.1666637 167.675,38.75 L166.875,43.375 C166.825,43.6750015 166.716667,43.8874994 166.55,44.0125 C166.383333,44.1375006 166.158335,44.2 165.875,44.2 C165.624999,44.2 165.283336,44.1416672 164.85,44.025 C164.416665,43.9083327 163.84167,43.85 163.125,43.85 C161.84166,43.85 160.741671,44.2041631 159.825,44.9125 C158.908329,45.6208369 158.133337,46.6583265 157.5,48.025 L157.5,64 L151.325,64 Z" id="Bürger" fill="#000000"></path>
    </g>
</svg>
