<?xml version="1.0" encoding="utf-8"?>
<!-- Generator: Adobe Illustrator 19.1.0, SVG Export Plug-In . SVG Version: 6.00 Build 0)  -->
<svg version="1.1" xmlns="http://www.w3.org/2000/svg" xmlns:xlink="http://www.w3.org/1999/xlink" x="0px" y="0px"
	 viewBox="0 0 150 170" enable-background="new 0 0 150 170" xml:space="preserve">
<g id="Typography">
</g>
<g id="Buttons">
</g>
<g id="Footer" display="none">
</g>
<g id="Content">
	<g>
		<path fill="#F1F8FC" d="M0,95c0,41.4,33.6,75,75,75c41.4,0,75-33.6,75-75c0-41.4-33.6-75-75-75C33.6,20,0,53.6,0,95"/>
		<g>
			<g>
				<defs>
					<path id="SVGID_588_" d="M0,95c0,41.4,33.6,75,75,75c41.4,0,75-33.6,75-75c0-41.4-33.6-75-75-75C33.6,20,0,53.6,0,95"/>
				</defs>
				<clipPath id="SVGID_1_">
					<use xlink:href="#SVGID_588_"  overflow="visible"/>
				</clipPath>
				<g clip-path="url(#SVGID_1_)">
					<path fill="#E9BCA6" d="M77.4,158L77.4,158c-0.3-0.6-0.1-1.2,0.4-1.6l-0.7-1.5c-0.6,0.1-1.1-0.2-1.4-0.7l0,0
						c-0.3-0.6,0-1.4,0.6-1.7l0.5-0.2l1.9-0.8l3.2-1.4l1.5-0.7c3.8-1.7,5.2,1.4,6.9,5.2c1.7,3.8,3.2,6.9-0.7,8.6l-1.5,0.7l-0.6,0.3
						l-4.5,2l-0.4,0.2c-0.6,0.3-1.4,0-1.7-0.6l0,0c-0.2-0.5-0.1-1,0.3-1.4l-0.7-1.6c-0.5,0-1-0.2-1.3-0.7l0,0
						c-0.2-0.5-0.1-1.1,0.3-1.4l-0.7-1.6C78.2,158.8,77.6,158.5,77.4,158"/>
					<path fill="#E9BCA6" d="M74,158.3L74,158.3c0.3-0.6,0.1-1.2-0.4-1.6l0.7-1.5c0.6,0.1,1.1-0.2,1.4-0.7l0,0
						c0.3-0.6,0-1.4-0.6-1.7l-0.5-0.2l-1.9-0.8l-3.2-1.4l-1.5-0.7c-3.8-1.7-5.2,1.4-6.9,5.2c-1.7,3.8-3.2,6.9,0.7,8.6l1.5,0.7
						l0.6,0.3l4.5,2l0.4,0.2c0.6,0.3,1.4,0,1.7-0.6l0,0c0.2-0.5,0.1-1-0.3-1.4l0.7-1.6c0.5,0,1-0.2,1.3-0.7l0,0
						c0.2-0.5,0.1-1.1-0.3-1.4l0.7-1.6C73.2,159.1,73.8,158.8,74,158.3"/>
					<path fill="#1F3F5B" d="M52.5,133.2c-3-13.6,5.7-27.1,19.3-30.1c3.2-0.7,5.2-3.8,4.5-7c-0.7-3.2-3.8-5.2-7-4.5
						c-9.7,2.1-17.9,7.9-23.3,16.2c-5.3,8.3-7.1,18.3-5,27.9L52.5,133.2z"/>
					<path fill="#1F3F5B" d="M99.3,133.2c3-13.6-5.7-27.1-19.3-30.1c-3.2-0.7-5.2-3.8-4.5-7c0.7-3.2,3.8-5.2,7-4.5
						c9.7,2.1,17.9,7.9,23.3,16.2c5.3,8.3,7.1,18.3,5,27.9L99.3,133.2z"/>
					<path fill="#F2D4C1" d="M84.5,163.1c-2.3-0.1-4.4-1.6-5.2-3.9c-1.1-3.1-0.6-6,2.5-7.1c8.3-2.9,15.7-10.3,17.5-18.9l11.3,2.5
						c-2.8,12.6-11.5,23-23.8,27.3C86.1,163.2,85.3,163.1,84.5,163.1"/>
					<polygon fill="#023456" points="107.1,133.5 112,134.3 110.8,137.5 					"/>
					<path fill="#002035" d="M98.4,135.9c0,0-1.1-2.3,1.7-4.9c0,0,3.6-3.1,5.5-0.8c0,0,3.7,3.8,5.2,7.2l-0.9,1.3
						C109.9,138.8,104.7,135.4,98.4,135.9z"/>
					<path fill="#F2D4C1" d="M67.2,163.1c2.3-0.1,4.4-1.6,5.2-3.9c1.1-3.1,0.6-6-2.5-7.1c-8.3-2.9-15.6-10.3-17.5-18.9l-11.3,2.5
						c2.8,12.6,11.5,23,23.8,27.3C65.6,163.2,66.4,163.1,67.2,163.1"/>
					<polygon fill="#023456" points="44.6,133.5 39.7,134.3 40.9,137.5 					"/>
					<path fill="#002035" d="M53.3,135.9c0,0,1.1-2.3-1.7-4.9c0,0-3.6-3.1-5.5-0.8c0,0-3.7,3.8-5.2,7.2l0.9,1.3
						C41.8,138.8,47,135.4,53.3,135.9z"/>
					<g>
						<path fill="#1F3F5B" d="M97.4,161.8c0,10.7-9.1,19.9-19.8,19.9h-3.5c-10.7,0-19.4-9.2-19.4-19.9v-51.6
							c0-10.7,8.7-19.6,19.4-19.6h3.5c10.7,0,19.8,8.9,19.8,19.6V161.8z"/>
					</g>
					<path fill="#023456" d="M97.4,117.4c0,0,0.1-3.5-2.1-6.6C95.3,110.8,96.3,113.5,97.4,117.4z"/>
					<path fill="#023456" d="M54.8,116.4c0,0-0.1-3.5,2.1-6.6C56.8,109.7,55.9,112.4,54.8,116.4z"/>
					<g>
						<polygon fill="#023456" points="76.1,179.2 76.6,179.2 76.6,104 76.1,104.1 						"/>
						<path fill="#002035" d="M78.5,111.1c0,0.4-0.3,0.7-0.7,0.7c-0.4,0-0.7-0.3-0.7-0.7c0-0.4,0.3-0.7,0.7-0.7
							C78.2,110.4,78.5,110.7,78.5,111.1"/>
						<path fill="#002035" d="M78.5,103.1c0,0.4-0.3,0.7-0.7,0.7c-0.4,0-0.7-0.3-0.7-0.7c0-0.4,0.3-0.7,0.7-0.7
							C78.2,102.4,78.5,102.7,78.5,103.1"/>
						<path fill="#002035" d="M78.5,121.8c0,0.4-0.3,0.7-0.7,0.7c-0.4,0-0.7-0.3-0.7-0.7c0-0.4,0.3-0.7,0.7-0.7
							C78.2,121,78.5,121.4,78.5,121.8"/>
						<path fill="#002035" d="M78.5,132.8c0,0.4-0.3,0.7-0.7,0.7c-0.4,0-0.7-0.3-0.7-0.7c0-0.4,0.3-0.7,0.7-0.7
							C78.2,132.1,78.5,132.4,78.5,132.8"/>
						<path fill="#002035" d="M78.5,144.9c0,0.4-0.3,0.7-0.7,0.7c-0.4,0-0.7-0.3-0.7-0.7c0-0.4,0.3-0.7,0.7-0.7
							C78.2,144.2,78.5,144.5,78.5,144.9"/>
						<path fill="#002035" d="M78.5,156.1c0,0.4-0.3,0.7-0.7,0.7c-0.4,0-0.7-0.3-0.7-0.7c0-0.4,0.3-0.7,0.7-0.7
							C78.2,155.3,78.5,155.7,78.5,156.1"/>
						<path fill="#002035" d="M78.5,166.5c0,0.4-0.3,0.7-0.7,0.7c-0.4,0-0.7-0.3-0.7-0.7c0-0.4,0.3-0.7,0.7-0.7
							C78.2,165.8,78.5,166.1,78.5,166.5"/>
					</g>
					<rect x="83.1" y="111.3" fill="#432A3E" width="8.6" height="2"/>
					<polygon fill="#F2D4C1" points="66.7,85 85.2,85 85.2,95.3 76.4,104.5 66.8,95.6 					"/>
					<path fill="#023456" d="M87.9,96.6c0,0-4.8,1.5-11.7,9.4c0,0-0.1-3.7,3.8-6.7C80,99.4,84.6,95.6,87.9,96.6z"/>
					<path fill="#023456" d="M67.7,97.2c0,0,4.5,3.7,8.9,9.1c0,0,0.2-3.6-4.8-6.9C71.8,99.4,69.1,96.8,67.7,97.2z"/>
					<path fill="#6D6E72" d="M71.8,99.4c0,0-4.7-6.1-4.7-12.1c0,0-1.2,2.6-3,5.1c-1.7,2.6-1.1,4.5-1.1,4.5S66.6,96.4,71.8,99.4z"/>
					<path fill="#6D6E72" d="M80,99.4c0,0,4.7-6.1,4.7-12.1c0,0,1.2,2.6,2.9,5.1c1.7,2.6,1.1,4.5,1.1,4.5S85.2,96.4,80,99.4z"/>
				</g>
			</g>
			<path fill="#776130" d="M107,41.8c0,19.2-12.1,37.6-30,37.6c-17.9,0-30-18.4-30-37.6c0-19.2,12.1-30,30-30
				C94.9,11.8,107,22.6,107,41.8"/>
			<path fill="#F2D4C1" d="M105,41.8V57c0,17-16.8,31-28,31c-11.2,0-28-13.9-28-31V41.8"/>
			<path fill="#F2D4C1" d="M105.2,46.3c0-5.6-0.2-10.6-2.9-14.8C97,23,88.2,30.8,76.8,30.8c-12.4,0-21.9-6.9-26.8,2.9
				c-1.9,3.7-2.6,11.9-2.6,16.6"/>
			<path fill="#F2D4C1" d="M111.9,54.2c0,3.1-2.5,5.7-5.7,5.7c-3.1,0-5.7-2.5-5.7-5.7c0-3.1,2.5-5.7,5.7-5.7
				C109.3,48.5,111.9,51,111.9,54.2"/>
			<path fill="#F2D4C1" d="M53,54.2c0,3.1-2.5,5.7-5.7,5.7c-3.1,0-5.7-2.5-5.7-5.7c0-3.1,2.5-5.7,5.7-5.7C50.4,48.5,53,51,53,54.2"
				/>
			<path fill="#ECA671" d="M76.4,54.3c-1.4-0.1-2.6,1.2-2.6,2.9l0,4.7c0,1.6,1.2,3,2.6,3.1c1.4,0.1,2.6-1.2,2.6-2.9l0-4.7
				C79.1,55.7,77.9,54.4,76.4,54.3"/>
			<path fill="#754B21" d="M64.5,53.8c-0.9,0-1.6-0.7-1.6-1.6c0-0.9,0.7-1.6,1.6-1.6c0.9,0,1.6,0.7,1.6,1.6
				C66.1,53.1,65.4,53.8,64.5,53.8"/>
			<path fill="#754B21" d="M89.4,53.8c0.9,0,1.6-0.7,1.6-1.6c0-0.9-0.7-1.6-1.6-1.6c-0.9,0-1.6,0.7-1.6,1.6
				C87.8,53.1,88.5,53.8,89.4,53.8"/>
			<path fill="#704D24" d="M83.9,48.3l-0.2,0l-0.1-0.6l0.2-0.1c0,0,0.9-0.6,2.2-1.1c0.3-0.1,0.6-0.2,0.9-0.2l0.3-0.1
				c0.4-0.1,0.8-0.1,1.3-0.2c0.4,0,0.8,0,1.1,0.1l0.3,0l0.1,0c0.1,0,0.3,0,0.4,0.1c0.3,0,0.6,0.1,0.9,0.2l1.3,0.3
				c0.3,0.1,0.6,0.2,0.9,0.3c0.1,0.1,0.3,0.1,0.4,0.2l0.3,0.1c0.3,0.1,0.6,0.2,0.9,0.4l1.5,0.8c0.4,0.2,0.8,0.5,1,0.7
				c0.3,0.2,0.5,0.4,0.5,0.4l0.2,0.2L98,50.3l-0.3-0.1c0,0-0.2-0.1-0.5-0.3c-0.3-0.1-0.7-0.3-1.2-0.5l-0.3-0.1
				c-0.2,0-0.4-0.1-0.6-0.2c-0.5-0.2-1-0.3-1.6-0.4c-0.2,0-0.3-0.1-0.5-0.1c-0.3-0.1-0.5-0.1-0.8-0.1L91,48.3c-0.3,0-0.6,0-0.8,0
				c-0.1,0-0.3,0-0.4,0c-0.2,0-0.4,0-0.6,0c-0.2,0-0.4,0-0.6,0c-0.5,0-0.9,0.1-1.2,0.1c-0.2,0-0.4,0-0.6,0c-0.2,0-0.3,0-0.4,0
				C84.9,48.5,84,48.3,83.9,48.3"/>
			<path fill="#704D24" d="M67.1,48.4c-0.1,0-0.3,0-0.5,0c-0.2,0-0.4,0-0.6,0c-0.3,0-0.7,0-1.2-0.1c-0.2,0-0.4,0-0.6,0
				c-0.2,0-0.4,0-0.6,0c-0.1,0-0.3,0-0.4,0c-0.3,0-0.6,0-0.8,0L61,48.4c-0.3,0-0.5,0.1-0.8,0.1c-0.2,0-0.3,0.1-0.5,0.1
				c-0.6,0.1-1.1,0.3-1.6,0.4c-0.2,0.1-0.4,0.1-0.6,0.2l-0.3,0.1c-0.5,0.2-0.9,0.3-1.2,0.5c-0.3,0.1-0.5,0.3-0.5,0.3l-0.3,0.1
				l-0.4-0.6l0.2-0.2c0,0,0.2-0.2,0.5-0.4c0.3-0.2,0.6-0.4,1-0.7l1.5-0.8c0.3-0.2,0.6-0.3,0.9-0.4l0.3-0.1c0.1,0,0.3-0.1,0.4-0.2
				c0.3-0.1,0.6-0.2,0.9-0.3l1.4-0.3c0.3-0.1,0.6-0.1,0.9-0.2c0.1,0,0.3,0,0.4-0.1l0.1,0l0.3,0c0.4-0.1,0.7-0.1,1.1-0.1
				c0.5,0.1,1,0.1,1.3,0.2l0.3,0c0.3,0.1,0.6,0.1,0.9,0.2c1.3,0.5,2.1,1,2.2,1.1l0.2,0.1l-0.1,0.6l-0.2,0
				C69.4,48.3,68.4,48.5,67.1,48.4"/>
			<path fill="#776130" d="M102.4,30.3c0,0,1.8,5.5,0.6,8.2c-1.1,2.7-0.5,4.2,0.7,6.4c1.1,2.3,1.5,5.3,1.5,5.3s1.5-8.5,0.7-13.1
				C105.2,32.8,102.4,30.3,102.4,30.3"/>
			<path fill="#776130" d="M51.2,31c0,0-2.1,5.5-0.8,8.2c1.4,2.7,0.6,4.2-0.8,6.4c-1.4,2.3-1.9,5.3-1.9,5.3s-1.9-8.5-0.9-13.1
				C47.9,33.4,51.2,31,51.2,31"/>
			<path fill="#AA9168" d="M77.2,68.3c0,0,1.2,0.2,4.7,0.2c3.5,0,7.1,7.1,7.1,7.1s1.8-1.7-1.3-6.7c-0.8-1.3-3.7-3.5-6.3-3.7
				C78.8,64.9,77,66,77,66c-0.8,0.4-1.2,0.1-1.2,0.1s-1.5-1.3-4.1-1.1c-2.6,0.2-5.5,2.5-6.3,3.7c-3,4.6-1.1,6.1-1.1,6.1
				s3.5-6.5,7-6.5c3.5,0,4.7-0.2,4.7-0.2C76.3,67.4,76.6,67.3,77.2,68.3"/>
			<path fill="#776130" d="M88.2,74.2c0,0,2.1,0,3.9-2.6c1.8-2.6,7.4-3.2,9.3-11.4c1.9-8.2,4.8-12.5,4.8-12.5s-0.6,4.4-1,12.2
				c-0.5,7.7-6.9,23.1-22.9,28.2C73.6,86.1,94.9,81.1,88.2,74.2"/>
			<path fill="#776130" d="M64.7,74.2c0,0-1.2-0.1-2.9-2.7c-1.8-2.6-7.4-3.2-9.3-11.4c-1.9-8.2-5.2-12.5-5.2-12.5s1,4.4,1.5,12.2
				c0.5,7.7,6.7,23.1,22.6,28.2c8.7-1.9-13.4-6.3-6.7-13.3"/>
			<path fill="#8E7747" d="M80.1,78c0,1.1-1.6,4.1-3.6,4.1c-2,0-3.6-3-3.6-4.1c0-1.1,1.6-1.9,3.6-1.9C78.5,76.1,80.1,77,80.1,78"/>
			<path fill="#826B41" d="M88.2,74.2c0,0.2,0,0.4,0,0.6c0,3.7-5.1,6.6-11.3,6.6c-6.2,0-12.3-2.9-12.3-6.6c0-0.2,0-0.4,0-0.6
				c-1.6,1.4-2.5,3.9-2.5,6.3c0,6,7,8.4,14.6,8.4c7.6,0,13.9-2.4,13.9-8.4C90.6,78.1,89.7,75.9,88.2,74.2"/>
			<path d="M104.1,47.5c0,0-10.9-3.5-22.3-0.2c0,0-4.9,3-11.5-0.1c0,0-9.6-3.1-20.8-0.2c0,0-0.4,0.6-0.3,2.1c0,0-0.1,1,0.4,1.2
				c0.5,0.2,0.8,0.5,1,1.3s1.2,7.8,3.6,9.4c0,0,3,3.3,10.8,2.2c0,0,5.1-1.2,6.7-3.8c1.6-2.6,1.9-7.3,4.8-7.3c0,0,2.3-0.4,3.4,4.8
				c0,0,1.8,5.1,4.6,5.6c0,0,4.1,2.4,11.9,0.6c0,0,4.1-1.2,5.2-5.9c1.2-4.7,1.7-6.5,2.5-6.4c0,0,1.3-0.2,1.7-0.6
				c0.4-0.5,0.6-1.9,0.6-1.9S105.8,47.6,104.1,47.5z M69.5,60.4c0,0-3.6,3-8.9,1.9c0,0-5.8,0.3-7.3-4.7c0,0-2.3-5.2-0.6-8.8
				c0,0,0.3-1.9,6.5-2c0,0,5.5,0.2,7.4,0.7c0,0,5.6,0.1,6,4.3C72.7,51.8,73.1,56.2,69.5,60.4z M99.3,59.9c0,0-2.3,3.3-7.8,3
				c0,0-4.9,0.2-7.3-1.7c0,0-2.6-1.7-3.8-6.4c0,0-0.7-3.5,0.5-4.7c0,0,1.8-2.3,7.2-2.6c0,0,3.7-0.5,8.4,0c0,0,4.2,0.1,4.6,3.5
				C101.2,51,102.2,55.4,99.3,59.9z"/>
			<g>
				<path fill="#EFEFEF" d="M45.4,39.3c0,0,0.7-8.3,2.2-13.7C49,20.8,71.4,8.3,76.3,8.3c5.5,0,28.9,11.1,31.2,19.3
					c0,0,0.7,4.6-0.5,12C107,39.6,75.6,23.5,45.4,39.3z"/>
				<path opacity="0.8" fill="#124214" d="M46.7,43.8v-5c0,0,13-8.6,28.3-7s22.7,2.6,32,7.7l0,3.3c0,0-17.9-5.8-32-6.5
					C73.4,36.2,57.5,36.4,46.7,43.8z"/>
				<path fill="#56BF62" d="M44.8,41.1c0,0,24-18.4,63.1,0c0,0,2.8,0.7,1.6-1.9c0,0-33.2-20.1-66.1,0C43.4,39.1,41.2,41.5,44.8,41.1
					z"/>
				<path fill="#333333" d="M67.2,25.1c0,0,12.1-1.7,17.4-0.1s2.8-2.7,2.8-2.7l-3.4-8.9c0,0-0.5-2.5-4.7-2.7
					c-4.3-0.2-8.4-0.3-10.1,2c-1.7,2.3-4.3,9.9-4.3,9.9S63.7,25.5,67.2,25.1z"/>
				<path fill="none" stroke="#F6CF40" stroke-width="1" stroke-miterlimit="10" d="M67.2,25.1c0,0,12.1-1.7,17.4-0.1
					s2.8-2.7,2.8-2.7l-3.4-8.9c0,0-0.5-2.5-4.7-2.7c-4.3-0.2-8.4-0.3-10.1,2c-1.7,2.3-4.3,9.9-4.3,9.9S63.7,25.5,67.2,25.1z"/>
				<path fill="#56BF62" d="M69.3,19.9c0-0.3,2.7-7.1,2.7-7.1l1.4,7.1h-1.1l-0.2,2.4c0,0-1.2,0.2-1.2,0c0-0.2-0.1-2.4-0.1-2.4H69.3z
					"/>
				<path fill="#FFFFFF" d="M72.9,14l1,4.6l9.8,0.5L80.8,14c0,0-2.6,2.2-3,2.2s-2.1-3.4-2.1-3.4L72.9,14z"/>
				<polygon fill="#44B5D4" points="73.9,19.4 75.1,20.7 81.3,20.7 81.3,20.1 				"/>
				<path fill="#56BF62" d="M73.1,21.6c0,0-0.1,1.7,0.3,1.5c0.4-0.2,6-0.7,6-0.7l5.4,1.2v-2H73.1z"/>
			</g>
			<path fill="#6A330D" d="M76.4,73.2c-1.9,0-3.6-1-4.6-2.6c-0.1-0.1-0.1-0.2-0.1-0.4c0-0.1,0.1-0.2,0.2-0.3c0.1,0,0.2-0.1,0.3-0.1
				c0.2,0,0.3,0.1,0.4,0.2c0.8,1.3,2.3,2.1,3.8,2.1c1.6,0,3-0.8,3.8-2.1c0.1-0.1,0.2-0.2,0.4-0.2c0.1,0,0.2,0,0.3,0.1
				c0.1,0.1,0.2,0.2,0.2,0.3c0,0.1,0,0.3-0.1,0.4C80,72.2,78.3,73.2,76.4,73.2"/>
			<polygon points="50.9,47.3 50.2,50.6 47.4,49 47.2,47.6 50.9,46.6 			"/>
		</g>
	</g>
</g>
<g id="Menu">
</g>
<g id="_x31_K_Grid_12col">
</g>
<g id="Guides" display="none">
	<rect x="0" y="0" display="inline" fill="#5AC9E8" width="150" height="170"/>
</g>
</svg>
